<mxfile host="app.diagrams.net" agent="Mozilla/5.0 (Windows NT 10.0; Win64; x64) AppleWebKit/537.36 (KHTML, like Gecko) Chrome/128.0.0.0 Safari/537.36 Edg/128.0.0.0" version="24.7.13">
  <diagram id="C5RBs43oDa-KdzZeNtuy" name="Page-1">
    <mxGraphModel dx="872" dy="479" grid="1" gridSize="10" guides="1" tooltips="1" connect="1" arrows="1" fold="1" page="1" pageScale="1" pageWidth="827" pageHeight="1169" math="0" shadow="0">
      <root>
        <mxCell id="WIyWlLk6GJQsqaUBKTNV-0" />
        <mxCell id="WIyWlLk6GJQsqaUBKTNV-1" parent="WIyWlLk6GJQsqaUBKTNV-0" />
        <mxCell id="C5R9z-s1dB1njHeYmq-U-1" value="Customer Id&lt;div&gt;First_name&lt;/div&gt;&lt;div&gt;Last_name&lt;/div&gt;&lt;div&gt;Postal_code&amp;nbsp;&lt;/div&gt;" style="rounded=0;whiteSpace=wrap;html=1;" vertex="1" parent="WIyWlLk6GJQsqaUBKTNV-1">
          <mxGeometry x="170" y="120" width="180" height="120" as="geometry" />
        </mxCell>
        <mxCell id="C5R9z-s1dB1njHeYmq-U-4" value="Purchase_id&lt;div&gt;Customer_id&lt;/div&gt;&lt;div&gt;Purchase_date&lt;/div&gt;&lt;div&gt;Product_name&lt;/div&gt;&lt;div&gt;Market_date_info&lt;/div&gt;" style="whiteSpace=wrap;html=1;aspect=fixed;" vertex="1" parent="WIyWlLk6GJQsqaUBKTNV-1">
          <mxGeometry x="432" y="286" width="180" height="180" as="geometry" />
        </mxCell>
        <mxCell id="C5R9z-s1dB1njHeYmq-U-5" value="" style="endArrow=none;html=1;rounded=0;" edge="1" parent="WIyWlLk6GJQsqaUBKTNV-1">
          <mxGeometry width="50" height="50" relative="1" as="geometry">
            <mxPoint x="140" y="350" as="sourcePoint" />
            <mxPoint x="140" y="160" as="targetPoint" />
          </mxGeometry>
        </mxCell>
        <mxCell id="C5R9z-s1dB1njHeYmq-U-6" value="" style="endArrow=none;html=1;rounded=0;" edge="1" parent="WIyWlLk6GJQsqaUBKTNV-1">
          <mxGeometry width="50" height="50" relative="1" as="geometry">
            <mxPoint x="140" y="350" as="sourcePoint" />
            <mxPoint x="432" y="350" as="targetPoint" />
          </mxGeometry>
        </mxCell>
        <mxCell id="C5R9z-s1dB1njHeYmq-U-7" style="edgeStyle=orthogonalEdgeStyle;rounded=0;orthogonalLoop=1;jettySize=auto;html=1;exitX=0;exitY=0.25;exitDx=0;exitDy=0;entryX=0.011;entryY=0.306;entryDx=0;entryDy=0;entryPerimeter=0;" edge="1" parent="WIyWlLk6GJQsqaUBKTNV-1" source="C5R9z-s1dB1njHeYmq-U-4" target="C5R9z-s1dB1njHeYmq-U-4">
          <mxGeometry relative="1" as="geometry" />
        </mxCell>
        <mxCell id="C5R9z-s1dB1njHeYmq-U-8" value="&lt;font style=&quot;font-size: 18px;&quot;&gt;&lt;b&gt;Farmers Market Logical Model&lt;/b&gt;&lt;/font&gt;" style="text;html=1;align=center;verticalAlign=middle;resizable=0;points=[];autosize=1;strokeColor=none;fillColor=none;" vertex="1" parent="WIyWlLk6GJQsqaUBKTNV-1">
          <mxGeometry x="180" y="23" width="280" height="40" as="geometry" />
        </mxCell>
        <mxCell id="C5R9z-s1dB1njHeYmq-U-9" value="Customer&amp;nbsp;" style="text;html=1;align=center;verticalAlign=middle;resizable=0;points=[];autosize=1;strokeColor=none;fillColor=none;" vertex="1" parent="WIyWlLk6GJQsqaUBKTNV-1">
          <mxGeometry x="210" y="88" width="80" height="30" as="geometry" />
        </mxCell>
        <mxCell id="C5R9z-s1dB1njHeYmq-U-10" value="Products&lt;div&gt;Product_id&lt;/div&gt;&lt;div&gt;Product_name&lt;/div&gt;&lt;div&gt;Product_size&lt;/div&gt;&lt;div&gt;Product_category&lt;/div&gt;&lt;div&gt;Product_Qty_type&lt;/div&gt;" style="whiteSpace=wrap;html=1;aspect=fixed;" vertex="1" parent="WIyWlLk6GJQsqaUBKTNV-1">
          <mxGeometry x="430" y="118" width="130" height="130" as="geometry" />
        </mxCell>
        <mxCell id="C5R9z-s1dB1njHeYmq-U-13" value="Text" style="text;html=1;align=center;verticalAlign=middle;resizable=0;points=[];autosize=1;strokeColor=none;fillColor=none;" vertex="1" parent="WIyWlLk6GJQsqaUBKTNV-1">
          <mxGeometry x="515" y="58" width="50" height="30" as="geometry" />
        </mxCell>
        <mxCell id="C5R9z-s1dB1njHeYmq-U-15" value="Product" style="text;html=1;align=center;verticalAlign=middle;resizable=0;points=[];autosize=1;strokeColor=none;fillColor=none;" vertex="1" parent="WIyWlLk6GJQsqaUBKTNV-1">
          <mxGeometry x="480" y="88" width="60" height="30" as="geometry" />
        </mxCell>
        <mxCell id="C5R9z-s1dB1njHeYmq-U-17" value="Customer_purchases" style="text;html=1;align=center;verticalAlign=middle;resizable=0;points=[];autosize=1;strokeColor=none;fillColor=none;" vertex="1" parent="WIyWlLk6GJQsqaUBKTNV-1">
          <mxGeometry x="440" y="248" width="140" height="30" as="geometry" />
        </mxCell>
        <mxCell id="C5R9z-s1dB1njHeYmq-U-18" value="" style="edgeStyle=segmentEdgeStyle;endArrow=classic;html=1;curved=0;rounded=0;endSize=8;startSize=8;sourcePerimeterSpacing=0;targetPerimeterSpacing=0;" edge="1" parent="WIyWlLk6GJQsqaUBKTNV-1">
          <mxGeometry width="100" relative="1" as="geometry">
            <mxPoint x="350" y="150" as="sourcePoint" />
            <mxPoint x="438" y="190" as="targetPoint" />
            <Array as="points">
              <mxPoint x="388" y="190" />
            </Array>
          </mxGeometry>
        </mxCell>
        <mxCell id="C5R9z-s1dB1njHeYmq-U-21" value="" style="endArrow=none;html=1;rounded=0;" edge="1" parent="WIyWlLk6GJQsqaUBKTNV-1">
          <mxGeometry width="50" height="50" relative="1" as="geometry">
            <mxPoint x="140" y="165" as="sourcePoint" />
            <mxPoint x="169" y="165" as="targetPoint" />
          </mxGeometry>
        </mxCell>
        <mxCell id="C5R9z-s1dB1njHeYmq-U-26" value="1" style="text;html=1;align=center;verticalAlign=middle;resizable=0;points=[];autosize=1;strokeColor=none;fillColor=none;" vertex="1" parent="WIyWlLk6GJQsqaUBKTNV-1">
          <mxGeometry x="145" y="148" width="30" height="30" as="geometry" />
        </mxCell>
        <mxCell id="C5R9z-s1dB1njHeYmq-U-27" value="many" style="text;html=1;align=center;verticalAlign=middle;resizable=0;points=[];autosize=1;strokeColor=none;fillColor=none;" vertex="1" parent="WIyWlLk6GJQsqaUBKTNV-1">
          <mxGeometry x="385" y="318" width="50" height="30" as="geometry" />
        </mxCell>
        <mxCell id="C5R9z-s1dB1njHeYmq-U-29" value="" style="endArrow=none;html=1;rounded=0;" edge="1" parent="WIyWlLk6GJQsqaUBKTNV-1">
          <mxGeometry width="50" height="50" relative="1" as="geometry">
            <mxPoint x="560" y="212" as="sourcePoint" />
            <mxPoint x="670" y="210" as="targetPoint" />
          </mxGeometry>
        </mxCell>
        <mxCell id="C5R9z-s1dB1njHeYmq-U-31" value="" style="endArrow=none;html=1;rounded=0;" edge="1" parent="WIyWlLk6GJQsqaUBKTNV-1">
          <mxGeometry width="50" height="50" relative="1" as="geometry">
            <mxPoint x="670" y="351" as="sourcePoint" />
            <mxPoint x="671" y="211" as="targetPoint" />
          </mxGeometry>
        </mxCell>
        <mxCell id="C5R9z-s1dB1njHeYmq-U-32" value="" style="endArrow=none;html=1;rounded=0;" edge="1" parent="WIyWlLk6GJQsqaUBKTNV-1">
          <mxGeometry width="50" height="50" relative="1" as="geometry">
            <mxPoint x="612" y="352" as="sourcePoint" />
            <mxPoint x="670" y="352" as="targetPoint" />
          </mxGeometry>
        </mxCell>
        <mxCell id="C5R9z-s1dB1njHeYmq-U-34" value="&amp;nbsp; &amp;nbsp; &amp;nbsp; &amp;nbsp;Many" style="text;html=1;align=center;verticalAlign=middle;resizable=0;points=[];autosize=1;strokeColor=none;fillColor=none;" vertex="1" parent="WIyWlLk6GJQsqaUBKTNV-1">
          <mxGeometry x="530" y="148" width="80" height="30" as="geometry" />
        </mxCell>
        <mxCell id="C5R9z-s1dB1njHeYmq-U-35" value="many" style="text;html=1;align=center;verticalAlign=middle;resizable=0;points=[];autosize=1;strokeColor=none;fillColor=none;" vertex="1" parent="WIyWlLk6GJQsqaUBKTNV-1">
          <mxGeometry x="605" y="368" width="50" height="30" as="geometry" />
        </mxCell>
        <mxCell id="C5R9z-s1dB1njHeYmq-U-36" value="1" style="text;html=1;align=center;verticalAlign=middle;resizable=0;points=[];autosize=1;strokeColor=none;fillColor=none;" vertex="1" parent="WIyWlLk6GJQsqaUBKTNV-1">
          <mxGeometry x="345" y="118" width="30" height="30" as="geometry" />
        </mxCell>
        <mxCell id="C5R9z-s1dB1njHeYmq-U-37" value="many" style="text;html=1;align=center;verticalAlign=middle;resizable=0;points=[];autosize=1;strokeColor=none;fillColor=none;" vertex="1" parent="WIyWlLk6GJQsqaUBKTNV-1">
          <mxGeometry x="395" y="168" width="50" height="30" as="geometry" />
        </mxCell>
      </root>
    </mxGraphModel>
  </diagram>
</mxfile>
